<svg width="16" height="18" viewBox="0 0 16 18" fill="none" xmlns="http://www.w3.org/2000/svg">
<path d="M6.24223 7.86166V12.72M9.48109 7.86166V12.72M13.5297 3.81308V15.1491C13.5297 15.5786 13.3591 15.9905 13.0554 16.2942C12.7516 16.5979 12.3397 16.7685 11.9102 16.7685H3.81308C3.38358 16.7685 2.97167 16.5979 2.66797 16.2942C2.36427 15.9905 2.19365 15.5786 2.19365 15.1491V3.81308M0.574219 3.81308H15.1491M4.6228 3.81308V2.19365C4.6228 1.76415 4.79342 1.35224 5.09712 1.04854C5.40082 0.744837 5.81273 0.574219 6.24223 0.574219H9.48109C9.91059 0.574219 10.3225 0.744837 10.6262 1.04854C10.9299 1.35224 11.1005 1.76415 11.1005 2.19365V3.81308" stroke="#A3A3A3" stroke-width="1.14832" stroke-linecap="round" stroke-linejoin="round"/>
</svg>
